<svg preserveAspectRatio="none" overflow="visible" style="display: block;" width="21.0002" height="15.75" viewBox="0 0 21.0002 15.75" fill="none" xmlns="http://www.w3.org/2000/svg">
<path id="Subtract" d="M4.76465 0C4.9117 0 5.04712 0.0967608 5.10547 0.24707L5.36621 0.926758L8.08887 0.521484C8.1226 0.518139 8.15963 0.515625 8.19336 0.515625H19.5908C19.925 0.515665 20.2441 0.692384 20.4434 0.983398L20.9434 1.71582C21.0077 1.8094 21.0197 1.93346 20.9678 2.03711C20.9218 2.14416 20.8231 2.20801 20.7158 2.20801H20.5049V13.4453C20.5049 13.452 20.504 13.4622 20.501 13.4688C20.4886 13.7997 20.2408 14.0633 19.9375 14.0635H19.0264C18.7013 15.0738 17.8272 15.75 16.8398 15.75C15.8526 15.7498 14.9824 15.077 14.6543 14.0635H3.86328C3.67317 15.0437 2.87915 15.75 1.95312 15.75C0.876946 15.7499 7.12708e-05 14.7933 0 13.6191C0 12.4584 0.855346 11.5119 1.91309 11.4883C2.07481 10.7037 0.350104 11.0027 0.319336 11.0098C0.307075 11.0098 0.294487 11.0092 0.282227 11.0059C0.223967 10.9891 0.177578 10.9425 0.15918 10.8789C0.140899 10.8188 0.150763 10.7483 0.1875 10.6982C0.76689 9.87252 1.67072 9.80487 1.97754 9.81152L1.93457 9.37012C1.73537 9.39349 1.5728 9.37731 1.4502 9.32715C1.25403 9.31028 1.10742 9.00891 1.10742 8.61426C1.10744 8.21954 1.25103 7.9181 1.44727 7.90137C1.53614 7.86461 1.64659 7.84865 1.77832 7.84863L1.7666 7.73145C1.75434 7.58759 1.7693 7.43989 1.81836 7.30273L3.37305 2.91406C2.96216 2.8137 2.58749 2.57616 2.31152 2.23828L2.1377 2.02734C2.04882 1.917 2.02051 1.76309 2.06641 1.62598C2.1124 1.48882 2.22655 1.39214 2.3584 1.37207L3.74121 1.16797L4.09668 0.24707C4.15497 0.0969319 4.28661 0.000188729 4.43652 0H4.76465ZM3.75 7.21875V9.84375H7.5V3.28125H5L3.75 7.21875ZM10 3.28125V9.84375H16.25V3.28125H10Z" fill="#0D57E2"/>
</svg>
